<?xml version="1.0" encoding="UTF-8" standalone="no"?>
<!-- Created with Inkscape (http://www.inkscape.org/) -->

<svg
   width="210mm"
   height="297mm"
   viewBox="0 0 210 297"
   version="1.1"
   id="svg5"
   xml:space="preserve"
   inkscape:version="1.2 (56b05e47e7, 2022-06-09, custom)"
   sodipodi:docname="logo.large.svg"
   inkscape:export-filename="../aebf75fc/bg.jpg"
   inkscape:export-xdpi="300"
   inkscape:export-ydpi="300"
   xmlns:inkscape="http://www.inkscape.org/namespaces/inkscape"
   xmlns:sodipodi="http://sodipodi.sourceforge.net/DTD/sodipodi-0.dtd"
   xmlns="http://www.w3.org/2000/svg"
   xmlns:svg="http://www.w3.org/2000/svg"><sodipodi:namedview
     id="namedview7"
     pagecolor="#505050"
     bordercolor="#eeeeee"
     borderopacity="1"
     inkscape:showpageshadow="0"
     inkscape:pageopacity="0"
     inkscape:pagecheckerboard="0"
     inkscape:deskcolor="#505050"
     inkscape:document-units="mm"
     showgrid="false"
     inkscape:zoom="1.0419012"
     inkscape:cx="321.52761"
     inkscape:cy="180.91927"
     inkscape:window-width="1920"
     inkscape:window-height="968"
     inkscape:window-x="1920"
     inkscape:window-y="27"
     inkscape:window-maximized="1"
     inkscape:current-layer="g30640"><inkscape:grid
       type="xygrid"
       id="grid1981" /></sodipodi:namedview><defs
     id="defs2" /><g
     inkscape:label="Layer 1"
     inkscape:groupmode="layer"
     id="layer1" /><g
     id="g30640"><g
       id="g325"
       transform="translate(0,20)"><rect
         style="fill:#007f87;fill-opacity:1;stroke:none;stroke-width:0.114257;stroke-dasharray:none;stroke-opacity:1"
         id="rect7264"
         width="214"
         height="116"
         x="0"
         y="-20" /><g
         id="g7210"
         transform="matrix(1,0,0,0.99740966,107,0)"><g
           id="g6396"
           transform="matrix(1.2,0,0,1.2,-30,0)"><circle
             style="fill:#00506c;fill-opacity:1;stroke:none;stroke-width:0.1;stroke-dasharray:none;stroke-opacity:1"
             id="path3277"
             cx="25"
             cy="25"
             r="25" /><path
             style="fill:#08263f;fill-opacity:1;stroke-width:0.0770497"
             d="m 20.987907,35.500361 v -1.538494 l -0.173363,0.04734 c -0.09535,0.026 -0.499608,0.08466 -0.898352,0.130132 -1.654768,0.188945 -3.192588,-0.297583 -4.080384,-1.290949 -0.3629,-0.406036 -0.447946,-0.551688 -1.009926,-1.729531 -0.368438,-0.772207 -0.927579,-1.430241 -1.658486,-1.951796 -0.761146,-0.543142 -0.837132,-0.813233 -0.271625,-0.965512 0.953081,-0.256637 2.307601,0.512969 3.093802,1.757838 0.448853,0.7107 0.980505,1.212857 1.589595,1.501387 0.50021,0.236958 0.554897,0.245864 1.482495,0.241664 0.829423,-0.0039 1.031317,-0.03054 1.454387,-0.192625 l 0.491269,-0.188265 0.139463,-0.552901 c 0.15911,-0.630781 0.291306,-0.915152 0.662907,-1.425988 l 0.262492,-0.36085 -0.368777,-0.05093 c -3.343553,-0.461315 -5.48752,-1.737385 -6.564076,-3.906873 -0.672898,-1.356041 -0.98911,-3.036106 -0.910138,-4.835677 0.06607,-1.505493 0.504435,-2.759763 1.34116,-3.8373 0.182748,-0.235345 0.332271,-0.454355 0.332271,-0.486702 0,-0.03227 -0.05732,-0.294984 -0.127386,-0.583662 -0.243556,-1.003524 -0.146601,-2.374779 0.254386,-3.597862 l 0.123346,-0.376236 0.626058,0.04266 c 0.95594,0.0652 2.264938,0.584688 3.602996,1.42976 l 0.495536,0.312958 0.575259,-0.146053 c 1.394916,-0.354156 1.982264,-0.419609 3.772823,-0.420449 1.757521,-8.8e-4 2.603616,0.09546 3.983438,0.453183 l 0.400627,0.103863 0.538806,-0.335303 c 1.382702,-0.860486 2.574094,-1.333135 3.52374,-1.397962 l 0.626061,-0.04266 0.123345,0.376236 c 0.396196,1.208483 0.493357,2.592165 0.252633,3.597862 -0.06911,0.288678 -0.125626,0.551328 -0.125626,0.583661 0,0.03241 0.149522,0.251358 0.33227,0.486703 0.463315,0.596661 0.854858,1.371881 1.102621,2.183074 0.198029,0.648368 0.210979,0.780073 0.211845,2.154528 8.73e-4,1.230109 -0.02674,1.592213 -0.172153,2.266994 -0.359021,1.665852 -0.86708,2.638337 -1.935333,3.704434 -0.616291,0.615048 -0.856663,0.795219 -1.504021,1.127337 -1.104604,0.566715 -2.352697,0.939058 -3.829827,1.142549 l -0.362592,0.05 0.340427,0.497249 c 0.658829,0.962312 0.680115,1.098471 0.728003,4.656667 0.130665,2.364192 -0.182733,3.251597 1.408902,4.483867 2.378331,1.84133 -14.293808,2.775803 -10.978671,-0.233851 1.075213,-0.976125 1.173855,-2.537045 1.097767,-2.883602 z"
             id="path185"
             sodipodi:nodetypes="ccsssssssssscsscssssssscsscscscsscsssssccssscscssc" /><g
             id="g3288"
             transform="matrix(1.1272387,0,0,1.1278811,2.4283504,2.3542878)"><path
               style="fill:#3674a5;fill-opacity:1;stroke:none;stroke-width:0.200001;stroke-dasharray:none;stroke-opacity:1"
               d="m 7.3075643,33.53387 v 1.960088 a 20,20 0 0 0 11.6716387,4.533056 l -1.421102,-1.421102 1.579232,-1.578198 A 17,17 0 0 1 9.6655599,33.53387 Z"
               id="path2497" /><path
               style="fill:#f9f871;fill-opacity:1;stroke:none;stroke-width:0.200001;stroke-dasharray:none;stroke-opacity:1"
               d="m 31.404801,32.70033 a 17,17 0 0 1 -9.151379,4.211112 l -1.69447,1.69447 1.35909,1.359607 a 20,20 0 0 0 11.492839,-5.034318 h -2.00608 z"
               id="path2495" /><path
               style="fill:#3674a5;fill-opacity:1;stroke:none;stroke-width:0.200001;stroke-dasharray:none;stroke-opacity:1"
               d="m 36.988957,20.941874 a 17,17 0 0 1 -3.462838,9.460405 v 2.407605 h 1.919779 a 20,20 0 0 0 4.538225,-11.660271 l -1.39423,1.393197 z"
               id="path2493" /><path
               style="fill:#f9f871;fill-opacity:1;stroke:none;stroke-width:0.200001;stroke-dasharray:none;stroke-opacity:1"
               d="M 1.523938,20.585824 0.12867432,21.981087 A 20,20 0 0 0 5.18573,33.461007 l 5.167e-4,-2.048454 H 7.3793945 A 17,17 0 0 1 3.1765503,22.238436 Z"
               id="path2491" /><path
               style="fill:#3674a5;fill-opacity:1;stroke:none;stroke-width:0.200001;stroke-dasharray:none;stroke-opacity:1"
               d="M 4.6147054,7.3468384 A 20,20 0 0 0 0.06356201,19.045349 L 1.523938,17.586007 3.065446,19.127515 A 17,17 0 0 1 6.5923625,9.6810628 V 7.3473551 Z"
               id="path2489" /><path
               style="fill:#f9f871;fill-opacity:1;stroke:none;stroke-width:0.200001;stroke-dasharray:none;stroke-opacity:1"
               d="m 34.912081,6.7220703 -5.17e-4,1.9637044 H 32.642969 A 17,17 0 0 1 36.867,17.819584 l 1.722893,1.723409 1.335835,-1.335836 A 20,20 0 0 0 34.912081,6.7220703 Z"
               id="path2487" /><path
               style="fill:#f9f871;fill-opacity:1;stroke:none;stroke-width:0.200001;stroke-dasharray:none;stroke-opacity:1"
               d="M 18.18442,0.18448486 A 20,20 0 0 0 6.6466227,5.2255208 H 8.71368 l 5.168e-4,2.1771281 A 17,17 0 0 1 17.747237,3.2530314 l 1.752865,-1.7528646 z"
               id="path2485" /><path
               style="fill:#3674a5;fill-opacity:1;stroke:none;stroke-width:0.200001;stroke-dasharray:none;stroke-opacity:1"
               d="m 21.128943,0.12919108 1.370976,1.37097572 -1.620573,1.6205729 a 17,17 0 0 1 9.45782,3.4432007 l 2.453081,5.168e-4 V 4.6818848 A 20,20 0 0 0 21.128943,0.12919108 Z"
               id="path2299" /></g><ellipse
             style="fill:#fed346;fill-opacity:1;stroke:none;stroke-width:0.122474;stroke-dasharray:none;stroke-opacity:1"
             id="path4794"
             cx="17.881104"
             cy="26.170321"
             rx="1"
             ry="1.5"
             transform="rotate(-8.4636656)" /><ellipse
             style="fill:#3674a5;fill-opacity:1;stroke:none;stroke-width:0.122474;stroke-dasharray:none;stroke-opacity:1"
             id="path4794-9"
             cx="32.671974"
             cy="17.293552"
             rx="1"
             ry="1.5"
             transform="rotate(10.615295)" /></g><text
           xml:space="preserve"
           style="font-style:normal;font-weight:normal;font-size:10.7327px;line-height:1.25;font-family:sans-serif;text-align:center;text-anchor:middle;fill:#f9f871;fill-opacity:1;stroke:none;stroke-width:0.268318"
           x="0.16096701"
           y="73.305923"
           id="text6329"
           transform="scale(0.98740682,1.0127538)"
           inkscape:transform-center-x="0.035555715"
           inkscape:transform-center-y="-1.1703007"><tspan
             sodipodi:role="line"
             style="font-style:normal;font-variant:normal;font-weight:normal;font-stretch:normal;font-family:'JetBrains Mono';-inkscape-font-specification:'JetBrains Mono';text-align:center;text-anchor:middle;fill:#f9f871;fill-opacity:1;stroke-width:0.268318"
             x="0.16096586"
             y="73.305923"
             id="tspan6381">Async PyOctocat</tspan></text></g></g></g></svg>
